<svg
    width="18"
    height="18"
    viewBox="0 0 18 18"
    fill="none"
    xmlns="http://www.w3.org/2000/svg"
>
    <path
    d="M7 6.99994C7 5.89528 7.896 4.99994 9.00067 5.00061C10.1053 5.00061 11.0007 5.89661 11 7.00128C11 7.84861 10.4653 8.60394 9.66667 8.88661C9.26667 9.02794 9 9.40594 9 9.82994V10.5006"
    stroke="#AD9BF6"
    strokeLinecap="round"
    strokeLinejoin="round"
    />
    <path
    d="M9.00001 12.5C8.86201 12.5 8.75001 12.612 8.75001 12.75C8.75001 12.888 8.86201 13 9.00001 13C9.13801 13 9.25001 12.888 9.25001 12.75C9.25001 12.612 9.13801 12.5 9.00001 12.5V12.5"
    stroke="#AD9BF6"
    strokeLinecap="round"
    strokeLinejoin="round"
    />
    <path
    fillRule="evenodd"
    clipRule="evenodd"
    d="M9 1C13.4181 1 17 4.58187 17 9C17 13.4181 13.4181 17 9 17C4.58187 17 1 13.4181 1 9C1 4.58187 4.58187 1 9 1Z"
    stroke="#AD9BF6"
    strokeLinecap="round"
    strokeLinejoin="round"
    />
</svg>